<?xml version="1.0" encoding="UTF-8"?>
<svg width="32px" height="32px" viewBox="0 0 32 32" version="1.1" xmlns="http://www.w3.org/2000/svg" xmlns:xlink="http://www.w3.org/1999/xlink">
    <!-- Generator: Sketch 49.3 (51167) - http://www.bohemiancoding.com/sketch -->
    <title>Icon/Compare</title>
    <desc>Created with Sketch.</desc>
    <defs></defs>
    <g id="Icon/Compare" stroke="none" stroke-width="1" fill="none" fill-rule="evenodd">
        <path d="M11.6833288,27.6666667 C11.2649015,27.6666667 10.9859499,27.4 10.9859499,27 C10.9859499,26.6 11.2649015,26.3333333 11.6833288,26.3333333 L20.0518745,26.3333333 C20.4703017,26.3333333 20.7492533,26.6 20.7492533,27 C20.7492533,27.4 20.4703017,27.6666667 20.0518745,27.6666667 L11.6833288,27.6666667 Z M24.2361473,29 L7.4990559,29 C7.08062862,29 6.8016771,29.2666667 6.8016771,29.6666667 C6.8016771,30.0666667 7.08062862,30.3333333 7.4990559,30.3333333 L24.2361473,30.3333333 C24.6545746,30.3333333 24.9335261,30.0666667 24.9335261,29.6666667 C24.9335261,29.2666667 24.6545746,29 24.2361473,29 Z M27.8625171,18.3333333 C24.7940503,18.3333333 22.8413897,15.1333333 24.0966715,12.2 L27.3046141,5 L16.7044562,5 L16.7044562,24.3333333 C16.7044562,24.7333333 16.4255046,25 16.0070774,25 C15.5886501,25 15.3096986,24.7333333 15.3096986,24.3333333 L15.3096986,5 L4.70954067,5 L7.91748319,12.2 C9.17276504,15 7.22010438,18.3333333 4.15163762,18.3333333 C1.08317087,18.3333333 -0.869489794,15.1333333 0.385792061,12.2 L3.59373458,5 L2.0595012,5 C1.64107392,5 1.36212239,4.73333333 1.36212239,4.33333333 C1.36212239,3.93333333 1.64107392,3.66666667 2.0595012,3.66666667 L15.3096986,3.66666667 L15.3096986,1.66666667 C15.3096986,1.26666667 15.5886501,1 16.0070774,1 C16.4255046,1 16.7044562,1.26666667 16.7044562,1.66666667 L16.7044562,3.66666667 L29.9546535,3.66666667 C30.3730808,3.66666667 30.6520323,3.93333333 30.6520323,4.33333333 C30.6520323,4.73333333 30.3730808,5 29.9546535,5 L28.4204201,5 L31.6283627,12.2 C32.8836445,15.1333333 30.7915081,18.3333333 27.8625171,18.3333333 Z M6.8016771,14.3333333 L1.22264663,14.3333333 C1.22264663,14.8666667 1.50159815,15.4 1.78054968,15.8 C2.33845272,16.6 3.17530729,17 4.01216186,17 C4.84901643,17 5.685871,16.6 6.24377405,15.8 C6.66220133,15.4 6.8016771,14.8666667 6.8016771,14.3333333 Z M4.15163762,7.13333333 L1.64107392,12.8666667 L1.64107392,13.1333333 L6.8016771,13.1333333 L6.8016771,12.8666667 L4.15163762,7.13333333 Z M25.2124776,13 L30.3730808,13 L30.3730808,12.7333333 L27.8625171,7 L25.3519534,12.7333333 C25.2124776,12.8666667 25.2124776,12.8666667 25.2124776,13 Z M30.5125566,14.3333333 L24.9335261,14.3333333 C24.9335261,14.8666667 25.2124776,15.4 25.4914292,15.8 C26.0493322,16.6 26.8861868,17 27.7230413,17 C28.5598959,17 29.3967505,16.6 29.9546535,15.8 C30.3730808,15.4 30.5125566,14.8666667 30.5125566,14.3333333 Z" id="Shape" fill="#A4A4A4" fill-rule="nonzero"></path>
    </g>
</svg>