<?xml version="1.0" encoding="UTF-8"?>
<svg width="32px" height="32px" viewBox="0 0 32 32" version="1.1" xmlns="http://www.w3.org/2000/svg" xmlns:xlink="http://www.w3.org/1999/xlink">
    <!-- Generator: Sketch 49.3 (51167) - http://www.bohemiancoding.com/sketch -->
    <title>Icon/Improve</title>
    <desc>Created with Sketch.</desc>
    <defs></defs>
    <g id="Icon/Improve" stroke="none" stroke-width="1" fill="none" fill-rule="evenodd">
        <path d="M4.2,21.12 L2.92,21.12 C1.896,21.12 1,22.016 1,23.04 L1,30.08 C1,31.104 1.896,32 2.92,32 L4.2,32 C5.224,32 6.12,31.104 6.12,30.08 L6.12,23.04 C6.248,22.016 5.352,21.12 4.2,21.12 Z M4.968,30.08 C4.968,30.464 4.712,30.72 4.328,30.72 L3.048,30.72 C2.664,30.72 2.408,30.464 2.408,30.08 L2.408,23.04 C2.408,22.656 2.664,22.4 3.048,22.4 L4.328,22.4 C4.712,22.4 4.968,22.656 4.968,23.04 L4.968,30.08 Z M13.16,14.08 L11.88,14.08 C10.856,14.08 9.96,14.976 9.96,16 L9.96,30.08 C9.96,31.104 10.856,32 11.88,32 L13.16,32 C14.184,32 15.08,31.104 15.08,30.08 L15.08,16 C15.208,14.976 14.312,14.08 13.16,14.08 Z M13.928,30.08 C13.928,30.464 13.672,30.72 13.288,30.72 L12.008,30.72 C11.624,30.72 11.368,30.464 11.368,30.08 L11.368,16 C11.368,15.616 11.624,15.36 12.008,15.36 L13.288,15.36 C13.672,15.36 13.928,15.616 13.928,16 L13.928,30.08 Z M30.44,9.216 L23.912,0.512 C23.656,0.128 23.272,0 22.888,0 C22.504,0 22.12,0.128 21.864,0.512 L15.336,9.216 C15.08,9.6 15.336,10.24 15.848,10.24 L20.328,10.24 L20.328,30.08 C20.328,31.104 21.224,32 22.248,32 L23.528,32 C24.552,32 25.448,31.104 25.448,30.08 L25.448,10.24 L29.928,10.24 C30.44,10.24 30.696,9.6 30.44,9.216 Z M24.168,8.96 L24.168,30.08 C24.168,30.464 23.912,30.72 23.528,30.72 L22.248,30.72 C21.864,30.72 21.608,30.464 21.608,30.08 L21.608,8.96 L17,8.96 L22.76,1.28 L22.76,1.28 L28.648,8.96 L24.168,8.96 Z" id="Shape" fill="#A4A4A4" fill-rule="nonzero"></path>
    </g>
</svg>