<?xml version="1.0" encoding="UTF-8"?>
<svg width="32px" height="32px" viewBox="0 0 32 32" version="1.1" xmlns="http://www.w3.org/2000/svg" xmlns:xlink="http://www.w3.org/1999/xlink">
    <!-- Generator: Sketch 49.3 (51167) - http://www.bohemiancoding.com/sketch -->
    <title>Icon/Simplify</title>
    <desc>Created with Sketch.</desc>
    <defs></defs>
    <g id="Icon/Simplify" stroke="none" stroke-width="1" fill="none" fill-rule="evenodd">
        <path d="M32,2.84210526 C32,3.34736842 31.6631579,3.68421053 31.1578947,3.68421053 L0.842105263,3.68421053 C0.336842105,3.68421053 0,3.34736842 0,2.84210526 C0,2.33684211 0.336842105,2 0.842105263,2 L31.1578947,2 C31.4947368,2 32,2.33684211 32,2.84210526 Z M27.7894737,8.73684211 L4.21052632,8.73684211 C3.70526316,8.73684211 3.36842105,9.07368421 3.36842105,9.57894737 C3.36842105,10.0842105 3.70526316,10.4210526 4.21052632,10.4210526 L27.7894737,10.4210526 C28.2947368,10.4210526 28.6315789,10.0842105 28.6315789,9.57894737 C28.6315789,9.07368421 28.1263158,8.73684211 27.7894737,8.73684211 Z M24.4210526,15.4736842 L7.57894737,15.4736842 C7.07368421,15.4736842 6.73684211,15.8105263 6.73684211,16.3157895 C6.73684211,16.8210526 7.07368421,17.1578947 7.57894737,17.1578947 L24.4210526,17.1578947 C24.9263158,17.1578947 25.2631579,16.8210526 25.2631579,16.3157895 C25.2631579,15.8105263 24.7578947,15.4736842 24.4210526,15.4736842 Z M21.0526316,22.2105263 L10.9473684,22.2105263 C10.4421053,22.2105263 10.1052632,22.5473684 10.1052632,23.0526316 C10.1052632,23.5578947 10.4421053,23.8947368 10.9473684,23.8947368 L21.0526316,23.8947368 C21.5578947,23.8947368 21.8947368,23.5578947 21.8947368,23.0526316 C21.8947368,22.5473684 21.3894737,22.2105263 21.0526316,22.2105263 Z M17.6842105,28.9473684 L14.3157895,28.9473684 C13.8105263,28.9473684 13.4736842,29.2842105 13.4736842,29.7894737 C13.4736842,30.2947368 13.8105263,30.6315789 14.3157895,30.6315789 L17.6842105,30.6315789 C18.1894737,30.6315789 18.5263158,30.2947368 18.5263158,29.7894737 C18.5263158,29.2842105 18.0210526,28.9473684 17.6842105,28.9473684 Z" id="Shape" fill="#A4A4A4"></path>
    </g>
</svg>