<?xml version="1.0" encoding="UTF-8"?>
<svg width="32px" height="32px" viewBox="0 0 32 32" version="1.1" xmlns="http://www.w3.org/2000/svg" xmlns:xlink="http://www.w3.org/1999/xlink">
    <!-- Generator: Sketch 49.3 (51167) - http://www.bohemiancoding.com/sketch -->
    <title>Icon/Missing</title>
    <desc>Created with Sketch.</desc>
    <defs></defs>
    <g id="Page-1" stroke="none" stroke-width="1" fill="none" fill-rule="evenodd">
        <g id="Case-Study---LVMH" transform="translate(-490.000000, -2293.000000)" fill="#A4A4A4" fill-rule="nonzero">
            <g id="Initial-Analysis" transform="translate(160.000000, 1800.000000)">
                <g id="User-Insights-List" transform="translate(330.000000, 264.000000)">
                    <g id="No-Lens-Tech" transform="translate(0.000000, 229.000000)">
                        <g id="Icon/Missing">
                            <path d="M31.3812506,28.4434314 L24.837926,21.9001068 C24.4373143,21.4994951 23.9031654,21.3659579 23.3690164,21.3659579 C23.1019419,21.3659579 22.8348675,21.4994951 22.567793,21.6330323 L19.763511,18.8287504 C21.4994951,16.8256918 22.7013302,14.1549471 22.7013302,11.3506651 C22.7013302,5.07441499 17.6269152,0 11.3506651,0 C5.07441499,0 0,5.07441499 0,11.3506651 C0,17.6269152 5.07441499,22.7013302 11.3506651,22.7013302 C14.2884843,22.7013302 16.8256918,21.6330323 18.8287504,19.763511 L21.6330323,22.567793 C21.2324206,23.3690164 21.3659579,24.1702398 22.033644,24.837926 L28.5769686,31.3812506 C28.9775803,31.7818623 29.5117293,31.9153996 30.0458782,31.9153996 C30.5800272,31.9153996 31.1141761,31.7818623 31.5147878,31.3812506 C32.182474,30.5800272 32.182474,29.2446548 31.3812506,28.4434314 Z M11.3506651,21.2324206 C5.87563841,21.2324206 1.33537237,16.6921546 1.33537237,11.2171279 C1.33537237,5.74210117 5.87563841,1.20183513 11.3506651,1.20183513 C16.8256918,1.20183513 21.3659579,5.74210117 21.3659579,11.2171279 C21.3659579,16.6921546 16.8256918,21.2324206 11.3506651,21.2324206 Z M30.44649,30.44649 C30.3129527,30.5800272 30.0458782,30.5800272 29.912341,30.5800272 C29.7788038,30.5800272 29.6452665,30.5800272 29.3781921,30.44649 L22.8348675,23.9031654 C22.7013302,23.7696281 22.7013302,23.5025536 22.7013302,23.3690164 C22.7013302,23.2354792 22.7013302,23.1019419 22.8348675,22.8348675 C22.9684047,22.7013302 23.2354792,22.7013302 23.3690164,22.7013302 C23.5025536,22.7013302 23.6360909,22.7013302 23.9031654,22.8348675 L30.44649,29.3781921 C30.5800272,29.5117293 30.5800272,29.7788038 30.5800272,29.912341 C30.5800272,30.0458782 30.5800272,30.1794155 30.44649,30.44649 Z M15.7573939,7.74515972 L12.2854258,11.2171279 L15.7573939,14.689096 C16.0244684,14.9561705 16.0244684,15.3567822 15.7573939,15.6238567 C15.4903194,15.8909312 15.0897077,15.8909312 14.8226333,15.6238567 L11.3506651,12.1518885 L7.87869696,15.6238567 C7.74515972,15.7573939 7.61162249,15.7573939 7.34454801,15.7573939 C7.07747354,15.7573939 6.9439363,15.7573939 6.81039907,15.6238567 C6.54332459,15.3567822 6.54332459,14.9561705 6.81039907,14.689096 L10.2823672,11.2171279 L6.81039907,7.74515972 C6.54332459,7.47808525 6.54332459,7.07747354 6.81039907,6.81039907 C6.9439363,6.67686183 7.07747354,6.67686183 7.34454801,6.67686183 C7.61162249,6.67686183 7.74515972,6.67686183 7.87869696,6.81039907 L11.3506651,10.2823672 L14.8226333,6.81039907 C15.0897077,6.54332459 15.4903194,6.54332459 15.7573939,6.81039907 C16.0244684,7.07747354 16.0244684,7.47808525 15.7573939,7.74515972 Z" id="Shape"></path>
                        </g>
                    </g>
                </g>
            </g>
        </g>
    </g>
</svg>