<?xml version="1.0" encoding="UTF-8"?>
<svg width="32px" height="32px" viewBox="0 0 32 32" version="1.1" xmlns="http://www.w3.org/2000/svg" xmlns:xlink="http://www.w3.org/1999/xlink">
    <!-- Generator: Sketch 49.3 (51167) - http://www.bohemiancoding.com/sketch -->
    <title>Icon/Sad User</title>
    <desc>Created with Sketch.</desc>
    <defs></defs>
    <g id="Page-1" stroke="none" stroke-width="1" fill="none" fill-rule="evenodd">
        <g id="Case-Study---LVMH" transform="translate(-490.000000, -2064.000000)" fill="#A4A4A4" fill-rule="nonzero">
            <g id="Initial-Analysis" transform="translate(160.000000, 1800.000000)">
                <g id="User-Insights-List" transform="translate(330.000000, 264.000000)">
                    <g id="Confusing-Product-Titles">
                        <g id="Icon/Sad-User">
                            <path d="M16,0 C7.168,0 0,7.168 0,16 C0,24.832 7.168,32 16,32 C24.832,32 32,24.832 32,16 C32,7.168 24.96,0 16,0 Z M16,30.72 C7.936,30.72 1.28,24.064 1.28,16 C1.28,7.936 7.936,1.28 16,1.28 C24.064,1.28 30.72,7.936 30.72,16 C30.72,24.064 24.192,30.72 16,30.72 Z M11.648,15.36 C10.88,15.36 10.368,14.848 10.368,14.08 C10.368,13.312 10.88,12.8 11.648,12.8 C12.416,12.8 12.928,13.312 12.928,14.08 C12.928,14.848 12.288,15.36 11.648,15.36 Z M21.888,14.08 C21.888,14.848 21.376,15.36 20.608,15.36 C19.84,15.36 19.328,14.848 19.328,14.08 C19.328,13.312 19.84,12.8 20.608,12.8 C21.376,12.8 21.888,13.44 21.888,14.08 Z M19.712,21.248 C19.968,21.504 19.968,21.888 19.712,22.144 C19.584,22.272 19.456,22.272 19.2,22.272 C19.072,22.272 18.816,22.272 18.688,22.144 C17.408,20.864 14.464,20.864 13.184,22.144 C12.928,22.4 12.544,22.4 12.288,22.144 C12.032,21.888 12.032,21.504 12.288,21.248 C14.208,19.456 17.92,19.456 19.712,21.248 Z" id="Shape"></path>
                        </g>
                    </g>
                </g>
            </g>
        </g>
    </g>
</svg>