<?xml version="1.0" encoding="UTF-8"?>
<svg width="32px" height="32px" viewBox="0 0 32 32" version="1.1" xmlns="http://www.w3.org/2000/svg" xmlns:xlink="http://www.w3.org/1999/xlink">
    <!-- Generator: Sketch 49.3 (51167) - http://www.bohemiancoding.com/sketch -->
    <title>Icon/Text Input</title>
    <desc>Created with Sketch.</desc>
    <defs></defs>
    <g id="Page-1" stroke="none" stroke-width="1" fill="none" fill-rule="evenodd">
        <g id="Case-Study---LVMH" transform="translate(-490.000000, -2519.000000)" fill="#A4A4A4" fill-rule="nonzero">
            <g id="Initial-Analysis" transform="translate(160.000000, 1800.000000)">
                <g id="User-Insights-List" transform="translate(330.000000, 264.000000)">
                    <g id="Comparison-Tool" transform="translate(0.000000, 455.000000)">
                        <g id="Icon/Text-Input">
                            <path d="M30.72,5.12 C31.488,5.12 32,4.608 32,3.84 L32,1.28 C32,0.512 31.488,0 30.72,0 L28.16,0 C27.392,0 26.88,0.512 26.88,1.28 L26.88,2.56 L5.12,2.56 L5.12,1.28 C5.12,0.512 4.608,0 3.84,0 L1.28,0 C0.512,0 0,0.512 0,1.28 L0,3.84 C0,4.608 0.512,5.12 1.28,5.12 L2.56,5.12 L2.56,26.88 L1.28,26.88 C0.512,26.88 0,27.392 0,28.16 L0,30.72 C0,31.488 0.512,32 1.28,32 L3.84,32 C4.608,32 5.12,31.488 5.12,30.72 L5.12,29.44 L26.88,29.44 L26.88,30.72 C26.88,31.488 27.392,32 28.16,32 L30.72,32 C31.488,32 32,31.488 32,30.72 L32,28.16 C32,27.392 31.488,26.88 30.72,26.88 L29.44,26.88 L29.44,5.12 L30.72,5.12 Z M1.28,3.84 L1.28,1.28 L3.84,1.28 L3.84,3.84 L2.56,3.84 L1.28,3.84 Z M3.84,30.72 L1.28,30.72 L1.28,28.16 L3.84,28.16 L3.84,30.72 Z M26.88,28.16 L5.12,28.16 C5.12,27.392 4.608,26.88 3.84,26.88 L3.84,5.12 C4.608,5.12 5.12,4.608 5.12,3.84 L26.88,3.84 C26.88,4.608 27.392,5.12 28.16,5.12 L28.16,26.88 C27.392,26.88 26.88,27.392 26.88,28.16 Z M30.72,28.16 L30.72,30.72 L28.16,30.72 L28.16,29.44 L28.16,28.16 L30.72,28.16 Z M28.16,3.84 L28.16,2.56 L28.16,1.28 L30.72,1.28 L30.72,3.84 L29.44,3.84 L28.16,3.84 Z M23.04,10.24 L23.04,12.16 C23.04,12.544 22.784,12.8 22.4,12.8 C22.016,12.8 21.76,12.544 21.76,12.16 L21.76,10.24 L16.64,10.24 L16.64,23.04 L18.56,23.04 C18.944,23.04 19.2,23.296 19.2,23.68 C19.2,24.064 18.944,24.32 18.56,24.32 L16.64,24.32 L15.36,24.32 L13.44,24.32 C13.056,24.32 12.8,24.064 12.8,23.68 C12.8,23.296 13.056,23.04 13.44,23.04 L15.36,23.04 L15.36,10.24 L10.24,10.24 L10.24,12.16 C10.24,12.544 9.984,12.8 9.6,12.8 C9.216,12.8 8.96,12.544 8.96,12.16 L8.96,10.24 C8.96,9.472 9.472,8.96 10.24,8.96 L21.76,8.96 C22.4,8.96 23.04,9.472 23.04,10.24 Z" id="Shape"></path>
                        </g>
                    </g>
                </g>
            </g>
        </g>
    </g>
</svg>