<?xml version="1.0" encoding="UTF-8"?>
<svg width="32px" height="32px" viewBox="0 0 32 32" version="1.1" xmlns="http://www.w3.org/2000/svg" xmlns:xlink="http://www.w3.org/1999/xlink">
    <!-- Generator: Sketch 49.3 (51167) - http://www.bohemiancoding.com/sketch -->
    <title>Artboard</title>
    <desc>Created with Sketch.</desc>
    <defs></defs>
    <g id="Artboard" stroke="none" stroke-width="1" fill="none" fill-rule="evenodd">
        <path d="M16,0 C24.83712,0 32,7.1616 32,16 C32,24.832 24.83712,32 16,32 C7.16352,32 0,24.832 0,16 C0,7.1616 7.16352,0 16,0 Z" id="Fill-292" fill="#2D2D2D"></path>
        <path d="M16.54464,11.80864 C16.51776,11.7568 16.49344,11.7056 16.45248,11.6672 C16.32768,11.5392 16.16192,11.488 15.99808,11.4944 C15.83424,11.488 15.66848,11.5392 15.54368,11.6672 C15.50272,11.7056 15.4784,11.7568 15.45152,11.80864 L7.82464,19.4304 C7.58656,19.6672 7.58656,20.05696 7.82464,20.2944 C8.064,20.5312 8.44992,20.5312 8.688,20.2944 L15.99808,12.9856 L23.30816,20.2944 C23.54624,20.5312 23.93216,20.5312 24.17088,20.2944 C24.40896,20.05696 24.40896,19.6672 24.17088,19.4304 L16.54464,11.80864 L16.54464,11.80864 Z" id="Path" fill="#FFFFFF"></path>
    </g>
</svg>